# xmcd
#
# Track frame offsets:
#	150
#	14988
#	28718
#	43488
#	54913
#	77760
#	86908
#	100953
#	114198
#	126533
#	145480
#	159455
#	169195
#	188470
#	210803
#	223853
#	235405
#	249043
#
# Disc length: 3516 seconds
# Revision: 2
# Processed by: cddbd v1.5.2PL0 Copyright (c) Steve Scherf et al.
# Submitted via: dBpowerAMP V12.0
#
DISCID=fc0dba12
DTITLE=Various Artist - Ladies Sing The Blues
DYEAR=1900
DGENRE=Blues
TTITLE0=Sarah Vaughn - Summertime
TTITLE1=Peggy Lee - Them There Eyes
TTITLE2=Peggy Lee - Say It Isn't So
TTITLE3=Peggy Lee - Hey, Buddy Bolden
TTITLE4=Peggy Lee - Tenderly
TTITLE5=Rosemarie Clooney - Come On-A My House
TTITLE6=Anita O'Day - And Her Tears Flowed Like Wine
TTITLE7=Anita O'Day - Am I A Fool In Love
TTITLE8=Anita O'Day - They Can't Take That Away From Me
TTITLE9=Anita O'Day - I Got It Bad And That Ain't Good
TTITLE10=Dinah Washington - My Old Flame
TTITLE11=Doris Day - Que Sera Sera
TTITLE12=Doris Day - Under A Blanket Of Blue
TTITLE13=Doris Day - When Your Lover has Gone
TTITLE14=Dionne Warwick - Trains And Boats And Planes
TTITLE15=Patsy Cline - Just Out of Reach
TTITLE16=Patsy Cline - It's Crazy Baby
TTITLE17=Patsy Cline - All Of Me
EXTD=
EXTT0=
EXTT1=
EXTT2=
EXTT3=
EXTT4=
EXTT5=
EXTT6=
EXTT7=
EXTT8=
EXTT9=
EXTT10=
EXTT11=
EXTT12=
EXTT13=
EXTT14=
EXTT15=
EXTT16=
EXTT17=
PLAYORDER=
